<?xml version="1.0" encoding="utf-8" standalone="no"?>
<!DOCTYPE svg PUBLIC "-//W3C//DTD SVG 1.1//EN"
  "http://www.w3.org/Graphics/SVG/1.1/DTD/svg11.dtd">
<svg xmlns:xlink="http://www.w3.org/1999/xlink" width="141.732283pt" height="158.740157pt" viewBox="0 0 141.732283 158.740157" xmlns="http://www.w3.org/2000/svg" version="1.1">
 <metadata>
  <rdf:RDF xmlns:dc="http://purl.org/dc/elements/1.1/" xmlns:cc="http://creativecommons.org/ns#" xmlns:rdf="http://www.w3.org/1999/02/22-rdf-syntax-ns#">
   <cc:Work>
    <dc:type rdf:resource="http://purl.org/dc/dcmitype/StillImage"/>
    <dc:date>2026-07-02T10:17:59.353143</dc:date>
    <dc:format>image/svg+xml</dc:format>
    <dc:creator>
     <cc:Agent>
      <dc:title>Matplotlib v3.7.5, https://matplotlib.org/</dc:title>
     </cc:Agent>
    </dc:creator>
   </cc:Work>
  </rdf:RDF>
 </metadata>
 <defs>
  <style type="text/css">*{stroke-linejoin: round; stroke-linecap: butt}</style>
 </defs>
 <g id="figure_1">
  <g id="patch_1">
   <path d="M 0 158.740157 
L 141.732283 158.740157 
L 141.732283 0 
L 0 0 
z
" style="fill: #ffffff"/>
  </g>
  <g id="axes_1">
   <g id="patch_2">
    <path d="M 61.46598 90.420004 
C 59.021277 86.297098 57.730949 81.591117 57.730949 76.7979 
C 57.730949 72.004683 59.021277 67.298702 61.46598 63.175796 
C 60.104473 61.706359 58.530326 60.449311 56.796094 59.446621 
C 55.061862 58.443931 53.187063 57.706884 51.234291 57.260087 
C 49.281519 56.81329 47.27275 56.661772 45.275052 56.810592 
C 43.277353 56.959411 41.313207 57.406893 39.448191 58.138097 
C 37.583174 58.869302 35.838276 59.876 34.271754 61.12458 
C 32.705231 62.373161 31.334714 63.849573 30.20596 65.504523 
C 29.077206 67.159474 28.202917 68.974337 27.612284 70.888521 
C 27.021652 72.802705 26.721322 74.794666 26.721322 76.7979 
C 26.721322 78.801134 27.021652 80.793096 27.612284 82.70728 
C 28.202917 84.621464 29.077206 86.436327 30.20596 88.091277 
C 31.334714 89.746227 32.705231 91.222639 34.271754 92.47122 
C 35.838276 93.719801 37.583174 94.726499 39.448191 95.457703 
C 41.313207 96.188908 43.277353 96.63639 45.275052 96.785209 
C 47.27275 96.934028 49.281519 96.78251 51.234291 96.335713 
C 53.187063 95.888916 55.061862 95.151869 56.796094 94.149179 
C 58.530326 93.14649 60.104473 91.889442 61.46598 90.420004 
" clip-path="url(#pda2333b6fd)" style="fill: #0f4d92; opacity: 0.88; stroke: #ffffff; stroke-width: 0.7; stroke-linejoin: miter"/>
   </g>
   <g id="patch_3">
    <path d="M 61.46598 63.175796 
C 64.898168 66.880063 66.806706 71.747999 66.806706 76.7979 
C 66.806706 81.847802 64.898168 86.715738 61.46598 90.420004 
C 62.948586 92.920368 64.8295 95.161997 67.034389 97.056304 
C 69.239279 98.950612 71.738712 100.472311 74.433914 101.561268 
C 77.129116 102.650224 79.984109 103.2919 82.886068 103.460938 
C 85.788027 103.629977 88.698214 103.32412 91.501622 102.555457 
C 94.305029 101.786793 96.964236 100.565583 99.374153 98.940087 
C 101.784071 97.31459 103.912529 95.306506 105.675414 92.995192 
C 107.438299 90.683877 108.812079 88.100185 109.742463 85.34622 
C 110.672847 82.592254 111.147417 79.704778 111.147417 76.7979 
C 111.147417 73.891022 110.672847 71.003546 109.742463 68.249581 
C 108.812079 65.495616 107.438299 62.911924 105.675414 60.600609 
C 103.912529 58.289294 101.784071 56.28121 99.374153 54.655714 
C 96.964236 53.030218 94.305029 51.809007 91.501622 51.040344 
C 88.698214 50.27168 85.788027 49.965824 82.886068 50.134862 
C 79.984109 50.3039 77.129116 50.945577 74.433914 52.034533 
C 71.738712 53.123489 69.239279 54.645189 67.034389 56.539496 
C 64.8295 58.433804 62.948586 60.675433 61.46598 63.175796 
" clip-path="url(#pda2333b6fd)" style="fill: #b64342; opacity: 0.88; stroke: #ffffff; stroke-width: 0.7; stroke-linejoin: miter"/>
   </g>
   <g id="patch_4">
    <path d="M 61.46598 90.420004 
C 64.898168 86.715738 66.806706 81.847802 66.806706 76.7979 
C 66.806706 71.747999 64.898168 66.880063 61.46598 63.175796 
C 59.021277 67.298702 57.730949 72.004683 57.730949 76.7979 
C 57.730949 81.591117 59.021277 86.297098 61.46598 90.420004 
" clip-path="url(#pda2333b6fd)" style="fill: #8f8f8f; opacity: 0.78; stroke: #ffffff; stroke-width: 0.7; stroke-linejoin: miter"/>
   </g>
   <g id="text_1">
    <path d="M 37.218151 75.18195 
L 36.717619 75.18195 
L 36.717619 71.98995 
Q 36.536823 72.161841 36.242916 72.334622 
Q 35.94901 72.507403 35.715666 72.593794 
L 35.715666 72.109294 
Q 36.136041 71.911575 36.450432 71.631028 
Q 36.764823 71.349591 36.895744 71.085075 
L 37.218151 71.085075 
L 37.218151 75.18195 
z
M 38.771735 75.18195 
L 38.771735 74.61106 
L 39.341735 74.61106 
L 39.341735 75.18195 
Q 39.341735 75.496341 39.230407 75.689607 
Q 39.119078 75.883763 38.877719 75.988857 
L 38.737891 75.775107 
Q 38.896422 75.705638 38.971235 75.570263 
Q 39.046938 75.434888 39.055844 75.18195 
L 38.771735 75.18195 
z
M 40.855909 72.969638 
Q 40.54419 72.854747 40.393674 72.643669 
Q 40.244049 72.4317 40.244049 72.136903 
Q 40.244049 71.691591 40.563784 71.388778 
Q 40.884409 71.085075 41.415221 71.085075 
Q 41.949596 71.085075 42.275565 71.395903 
Q 42.601534 71.705841 42.601534 72.151153 
Q 42.601534 72.435263 42.451909 72.64545 
Q 42.303174 72.854747 42.000362 72.969638 
Q 42.376205 73.091653 42.572143 73.365075 
Q 42.76808 73.637607 42.76808 74.016122 
Q 42.76808 74.538919 42.39758 74.895169 
Q 42.027971 75.251419 41.424127 75.251419 
Q 40.820284 75.251419 40.449784 74.894278 
Q 40.079284 74.536247 40.079284 74.001872 
Q 40.079284 73.603763 40.281455 73.335685 
Q 40.483627 73.066716 40.855909 72.969638 
z
M 40.756159 72.119982 
Q 40.756159 72.409435 40.942299 72.593794 
Q 41.12933 72.777263 41.426799 72.777263 
Q 41.716252 72.777263 41.901502 72.595575 
Q 42.086752 72.412997 42.086752 72.148482 
Q 42.086752 71.872388 41.895268 71.684466 
Q 41.704674 71.496544 41.421455 71.496544 
Q 41.134674 71.496544 40.944971 71.680903 
Q 40.756159 71.864372 40.756159 72.119982 
z
M 40.594955 74.004544 
Q 40.594955 74.219185 40.696487 74.419575 
Q 40.798018 74.619966 40.998409 74.730403 
Q 41.198799 74.83995 41.429471 74.83995 
Q 41.788393 74.83995 42.021737 74.609278 
Q 42.255971 74.377716 42.255971 74.021466 
Q 42.255971 73.659872 42.015502 73.422966 
Q 41.775034 73.18606 41.412549 73.18606 
Q 41.058971 73.18606 40.826518 73.420294 
Q 40.594955 73.653638 40.594955 74.004544 
z
M 44.025977 72.969638 
Q 43.714258 72.854747 43.563743 72.643669 
Q 43.414118 72.4317 43.414118 72.136903 
Q 43.414118 71.691591 43.733852 71.388778 
Q 44.054477 71.085075 44.585289 71.085075 
Q 45.119664 71.085075 45.445633 71.395903 
Q 45.771602 71.705841 45.771602 72.151153 
Q 45.771602 72.435263 45.621977 72.64545 
Q 45.473243 72.854747 45.17043 72.969638 
Q 45.546274 73.091653 45.742211 73.365075 
Q 45.938149 73.637607 45.938149 74.016122 
Q 45.938149 74.538919 45.567649 74.895169 
Q 45.198039 75.251419 44.594196 75.251419 
Q 43.990352 75.251419 43.619852 74.894278 
Q 43.249352 74.536247 43.249352 74.001872 
Q 43.249352 73.603763 43.451524 73.335685 
Q 43.653696 73.066716 44.025977 72.969638 
z
M 43.926227 72.119982 
Q 43.926227 72.409435 44.112368 72.593794 
Q 44.299399 72.777263 44.596868 72.777263 
Q 44.886321 72.777263 45.071571 72.595575 
Q 45.256821 72.412997 45.256821 72.148482 
Q 45.256821 71.872388 45.065336 71.684466 
Q 44.874743 71.496544 44.591524 71.496544 
Q 44.304743 71.496544 44.115039 71.680903 
Q 43.926227 71.864372 43.926227 72.119982 
z
M 43.765024 74.004544 
Q 43.765024 74.219185 43.866555 74.419575 
Q 43.968086 74.619966 44.168477 74.730403 
Q 44.368868 74.83995 44.599539 74.83995 
Q 44.958461 74.83995 45.191805 74.609278 
Q 45.426039 74.377716 45.426039 74.021466 
Q 45.426039 73.659872 45.185571 73.422966 
Q 44.945102 73.18606 44.582618 73.18606 
Q 44.229039 73.18606 43.996586 73.420294 
Q 43.765024 73.653638 43.765024 74.004544 
z
M 46.425655 74.1132 
L 46.951123 74.068669 
Q 47.009905 74.452528 47.222764 74.646685 
Q 47.435623 74.83995 47.736655 74.83995 
Q 48.098248 74.83995 48.348514 74.567419 
Q 48.59878 74.293997 48.59878 73.843341 
Q 48.59878 73.41495 48.358311 73.167357 
Q 48.117842 72.918872 47.727748 72.918872 
Q 47.485498 72.918872 47.290452 73.02931 
Q 47.096295 73.138857 46.984967 73.31431 
L 46.514717 73.252857 
L 46.909264 71.157216 
L 48.938998 71.157216 
L 48.938998 71.636372 
L 47.310045 71.636372 
L 47.090952 72.732732 
Q 47.457889 72.476232 47.861342 72.476232 
Q 48.395717 72.476232 48.762655 72.846732 
Q 49.130483 73.217232 49.130483 73.79881 
Q 49.130483 74.352778 48.808077 74.756232 
Q 48.415311 75.251419 47.736655 75.251419 
Q 47.180014 75.251419 46.827327 74.9397 
Q 46.47553 74.627982 46.425655 74.1132 
z
" style="fill: #ffffff; stroke: #272727; stroke-width: 0.75"/>
    <path d="M 37.218151 75.18195 
L 36.717619 75.18195 
L 36.717619 71.98995 
Q 36.536823 72.161841 36.242916 72.334622 
Q 35.94901 72.507403 35.715666 72.593794 
L 35.715666 72.109294 
Q 36.136041 71.911575 36.450432 71.631028 
Q 36.764823 71.349591 36.895744 71.085075 
L 37.218151 71.085075 
L 37.218151 75.18195 
z
M 38.771735 75.18195 
L 38.771735 74.61106 
L 39.341735 74.61106 
L 39.341735 75.18195 
Q 39.341735 75.496341 39.230407 75.689607 
Q 39.119078 75.883763 38.877719 75.988857 
L 38.737891 75.775107 
Q 38.896422 75.705638 38.971235 75.570263 
Q 39.046938 75.434888 39.055844 75.18195 
L 38.771735 75.18195 
z
M 40.855909 72.969638 
Q 40.54419 72.854747 40.393674 72.643669 
Q 40.244049 72.4317 40.244049 72.136903 
Q 40.244049 71.691591 40.563784 71.388778 
Q 40.884409 71.085075 41.415221 71.085075 
Q 41.949596 71.085075 42.275565 71.395903 
Q 42.601534 71.705841 42.601534 72.151153 
Q 42.601534 72.435263 42.451909 72.64545 
Q 42.303174 72.854747 42.000362 72.969638 
Q 42.376205 73.091653 42.572143 73.365075 
Q 42.76808 73.637607 42.76808 74.016122 
Q 42.76808 74.538919 42.39758 74.895169 
Q 42.027971 75.251419 41.424127 75.251419 
Q 40.820284 75.251419 40.449784 74.894278 
Q 40.079284 74.536247 40.079284 74.001872 
Q 40.079284 73.603763 40.281455 73.335685 
Q 40.483627 73.066716 40.855909 72.969638 
z
M 40.756159 72.119982 
Q 40.756159 72.409435 40.942299 72.593794 
Q 41.12933 72.777263 41.426799 72.777263 
Q 41.716252 72.777263 41.901502 72.595575 
Q 42.086752 72.412997 42.086752 72.148482 
Q 42.086752 71.872388 41.895268 71.684466 
Q 41.704674 71.496544 41.421455 71.496544 
Q 41.134674 71.496544 40.944971 71.680903 
Q 40.756159 71.864372 40.756159 72.119982 
z
M 40.594955 74.004544 
Q 40.594955 74.219185 40.696487 74.419575 
Q 40.798018 74.619966 40.998409 74.730403 
Q 41.198799 74.83995 41.429471 74.83995 
Q 41.788393 74.83995 42.021737 74.609278 
Q 42.255971 74.377716 42.255971 74.021466 
Q 42.255971 73.659872 42.015502 73.422966 
Q 41.775034 73.18606 41.412549 73.18606 
Q 41.058971 73.18606 40.826518 73.420294 
Q 40.594955 73.653638 40.594955 74.004544 
z
M 44.025977 72.969638 
Q 43.714258 72.854747 43.563743 72.643669 
Q 43.414118 72.4317 43.414118 72.136903 
Q 43.414118 71.691591 43.733852 71.388778 
Q 44.054477 71.085075 44.585289 71.085075 
Q 45.119664 71.085075 45.445633 71.395903 
Q 45.771602 71.705841 45.771602 72.151153 
Q 45.771602 72.435263 45.621977 72.64545 
Q 45.473243 72.854747 45.17043 72.969638 
Q 45.546274 73.091653 45.742211 73.365075 
Q 45.938149 73.637607 45.938149 74.016122 
Q 45.938149 74.538919 45.567649 74.895169 
Q 45.198039 75.251419 44.594196 75.251419 
Q 43.990352 75.251419 43.619852 74.894278 
Q 43.249352 74.536247 43.249352 74.001872 
Q 43.249352 73.603763 43.451524 73.335685 
Q 43.653696 73.066716 44.025977 72.969638 
z
M 43.926227 72.119982 
Q 43.926227 72.409435 44.112368 72.593794 
Q 44.299399 72.777263 44.596868 72.777263 
Q 44.886321 72.777263 45.071571 72.595575 
Q 45.256821 72.412997 45.256821 72.148482 
Q 45.256821 71.872388 45.065336 71.684466 
Q 44.874743 71.496544 44.591524 71.496544 
Q 44.304743 71.496544 44.115039 71.680903 
Q 43.926227 71.864372 43.926227 72.119982 
z
M 43.765024 74.004544 
Q 43.765024 74.219185 43.866555 74.419575 
Q 43.968086 74.619966 44.168477 74.730403 
Q 44.368868 74.83995 44.599539 74.83995 
Q 44.958461 74.83995 45.191805 74.609278 
Q 45.426039 74.377716 45.426039 74.021466 
Q 45.426039 73.659872 45.185571 73.422966 
Q 44.945102 73.18606 44.582618 73.18606 
Q 44.229039 73.18606 43.996586 73.420294 
Q 43.765024 73.653638 43.765024 74.004544 
z
M 46.425655 74.1132 
L 46.951123 74.068669 
Q 47.009905 74.452528 47.222764 74.646685 
Q 47.435623 74.83995 47.736655 74.83995 
Q 48.098248 74.83995 48.348514 74.567419 
Q 48.59878 74.293997 48.59878 73.843341 
Q 48.59878 73.41495 48.358311 73.167357 
Q 48.117842 72.918872 47.727748 72.918872 
Q 47.485498 72.918872 47.290452 73.02931 
Q 47.096295 73.138857 46.984967 73.31431 
L 46.514717 73.252857 
L 46.909264 71.157216 
L 48.938998 71.157216 
L 48.938998 71.636372 
L 47.310045 71.636372 
L 47.090952 72.732732 
Q 47.457889 72.476232 47.861342 72.476232 
Q 48.395717 72.476232 48.762655 72.846732 
Q 49.130483 73.217232 49.130483 73.79881 
Q 49.130483 74.352778 48.808077 74.756232 
Q 48.415311 75.251419 47.736655 75.251419 
Q 47.180014 75.251419 46.827327 74.9397 
Q 46.47553 74.627982 46.425655 74.1132 
z
" style="fill: #ffffff"/>
    <path d="M 33.580838 82.493803 
Q 33.165807 81.970116 32.879026 81.269194 
Q 32.593135 80.567382 32.593135 79.816585 
Q 32.593135 79.15396 32.806885 78.547444 
Q 33.057151 77.84296 33.580838 77.14471 
L 33.93976 77.14471 
Q 33.603104 77.723616 33.494448 77.97121 
Q 33.324338 78.355069 33.22726 78.772772 
Q 33.107916 79.292897 33.107916 79.819257 
Q 33.107916 81.157866 33.93976 82.493803 
L 33.580838 82.493803 
z
M 34.385295 80.217366 
L 34.885827 80.150569 
Q 34.972217 80.576288 35.179733 80.76421 
Q 35.387248 80.952132 35.684717 80.952132 
Q 36.038295 80.952132 36.281436 80.70721 
Q 36.525467 80.462288 36.525467 80.099803 
Q 36.525467 79.755132 36.300139 79.531585 
Q 36.074811 79.307147 35.726577 79.307147 
Q 35.584967 79.307147 35.372998 79.362366 
L 35.429108 78.922397 
Q 35.478983 78.928632 35.509264 78.928632 
Q 35.829889 78.928632 36.085498 78.762085 
Q 36.341998 78.594647 36.341998 78.246413 
Q 36.341998 77.97121 36.154967 77.790413 
Q 35.968827 77.608725 35.67403 77.608725 
Q 35.381905 77.608725 35.186858 77.793085 
Q 34.991811 77.976553 34.936592 78.343491 
L 34.43517 78.254428 
Q 34.526905 77.751225 34.851983 77.474241 
Q 35.177952 77.197257 35.662452 77.197257 
Q 35.996436 77.197257 36.276983 77.340647 
Q 36.55842 77.484038 36.707155 77.731632 
Q 36.85678 77.979225 36.85678 78.257991 
Q 36.85678 78.521616 36.71428 78.738928 
Q 36.57267 78.956241 36.294795 79.084491 
Q 36.656389 79.167319 36.85678 79.430944 
Q 37.05717 79.693678 37.05717 80.089116 
Q 37.05717 80.623491 36.667077 80.994882 
Q 36.277873 81.366272 35.682045 81.366272 
Q 35.144998 81.366272 34.789639 81.046538 
Q 34.43517 80.725913 34.385295 80.217366 
z
M 40.185379 80.812303 
L 40.185379 81.294132 
L 37.488567 81.294132 
Q 37.483223 81.113335 37.546457 80.945897 
Q 37.64977 80.670694 37.875989 80.403507 
Q 38.103098 80.136319 38.532379 79.785413 
Q 39.197676 79.24035 39.43102 78.921507 
Q 39.665254 78.602663 39.665254 78.318553 
Q 39.665254 78.021085 39.451504 77.817132 
Q 39.238645 77.612288 38.896645 77.612288 
Q 38.535051 77.612288 38.317739 77.8296 
Q 38.100426 78.046022 38.097754 78.429882 
L 37.582973 78.377335 
Q 37.63552 77.8011 37.980192 77.499178 
Q 38.325754 77.197257 38.908223 77.197257 
Q 39.495145 77.197257 39.837145 77.523225 
Q 40.180036 77.848303 40.180036 78.330132 
Q 40.180036 78.575053 40.079395 78.81196 
Q 39.979645 79.047975 39.747192 79.309819 
Q 39.514739 79.571663 38.97502 80.027663 
Q 38.523473 80.406178 38.395223 80.541553 
Q 38.267864 80.676038 38.184145 80.812303 
L 40.185379 80.812303 
z
M 41.003307 81.294132 
L 41.003307 80.723241 
L 41.574198 80.723241 
L 41.574198 81.294132 
L 41.003307 81.294132 
z
M 43.076793 79.081819 
Q 42.765075 78.966928 42.614559 78.75585 
Q 42.464934 78.543882 42.464934 78.249085 
Q 42.464934 77.803772 42.784668 77.50096 
Q 43.105293 77.197257 43.636106 77.197257 
Q 44.170481 77.197257 44.49645 77.508085 
Q 44.822418 77.818022 44.822418 78.263335 
Q 44.822418 78.547444 44.672793 78.757632 
Q 44.524059 78.966928 44.221246 79.081819 
Q 44.59709 79.203835 44.793028 79.477257 
Q 44.988965 79.749788 44.988965 80.128303 
Q 44.988965 80.6511 44.618465 81.00735 
Q 44.248856 81.3636 43.645012 81.3636 
Q 43.041168 81.3636 42.670668 81.00646 
Q 42.300168 80.648428 42.300168 80.114053 
Q 42.300168 79.715944 42.50234 79.447866 
Q 42.704512 79.178897 43.076793 79.081819 
z
M 42.977043 78.232163 
Q 42.977043 78.521616 43.163184 78.705975 
Q 43.350215 78.889444 43.647684 78.889444 
Q 43.937137 78.889444 44.122387 78.707757 
Q 44.307637 78.525178 44.307637 78.260663 
Q 44.307637 77.984569 44.116153 77.796647 
Q 43.925559 77.608725 43.64234 77.608725 
Q 43.355559 77.608725 43.165856 77.793085 
Q 42.977043 77.976553 42.977043 78.232163 
z
M 42.81584 80.116725 
Q 42.81584 80.331366 42.917371 80.531757 
Q 43.018903 80.732147 43.219293 80.842585 
Q 43.419684 80.952132 43.650356 80.952132 
Q 44.009278 80.952132 44.242621 80.72146 
Q 44.476856 80.489897 44.476856 80.133647 
Q 44.476856 79.772053 44.236387 79.535147 
Q 43.995918 79.298241 43.633434 79.298241 
Q 43.279856 79.298241 43.047403 79.532475 
Q 42.81584 79.765819 42.81584 80.116725 
z
M 45.570877 78.193866 
Q 45.570877 77.756569 45.790862 77.451085 
Q 46.010846 77.14471 46.427659 77.14471 
Q 46.812409 77.14471 47.063565 77.419022 
Q 47.315612 77.692444 47.315612 78.224147 
Q 47.315612 78.7416 47.060893 79.021257 
Q 46.806174 79.300913 46.433893 79.300913 
Q 46.063393 79.300913 45.81669 79.02571 
Q 45.570877 78.750507 45.570877 78.193866 
z
M 46.441909 77.489382 
Q 46.255768 77.489382 46.131971 77.651475 
Q 46.008174 77.812678 46.008174 78.243741 
Q 46.008174 78.636507 46.132862 78.796819 
Q 46.25844 78.956241 46.441909 78.956241 
Q 46.631612 78.956241 46.755409 78.795038 
Q 46.879205 78.632944 46.879205 78.204553 
Q 46.879205 77.809116 46.753627 77.649694 
Q 46.628049 77.489382 46.441909 77.489382 
z
M 46.44458 81.444647 
L 48.676487 77.14471 
L 49.083502 77.14471 
L 46.859612 81.444647 
L 46.44458 81.444647 
z
M 48.208909 80.33671 
Q 48.208909 79.896741 48.428893 79.592147 
Q 48.648877 79.287553 49.069252 79.287553 
Q 49.453112 79.287553 49.705159 79.561866 
Q 49.957205 79.835288 49.957205 80.366991 
Q 49.957205 80.885335 49.702487 81.164991 
Q 49.447768 81.444647 49.071924 81.444647 
Q 48.702315 81.444647 48.455612 81.167663 
Q 48.208909 80.890678 48.208909 80.33671 
z
M 49.083502 79.632225 
Q 48.893799 79.632225 48.770002 79.794319 
Q 48.646205 79.955522 48.646205 80.386585 
Q 48.646205 80.776678 48.770893 80.937882 
Q 48.896471 81.099085 49.08083 81.099085 
Q 49.272315 81.099085 49.396112 80.937882 
Q 49.519909 80.776678 49.519909 80.347397 
Q 49.519909 79.95285 49.39433 79.792538 
Q 49.269643 79.632225 49.083502 79.632225 
z
M 51.012262 82.493803 
L 50.65334 82.493803 
Q 51.485184 81.157866 51.485184 79.819257 
Q 51.485184 79.295569 51.36584 78.780788 
Q 51.270543 78.363085 51.101325 77.979225 
Q 50.992668 77.72896 50.65334 77.14471 
L 51.012262 77.14471 
Q 51.535059 77.84296 51.785325 78.547444 
Q 51.999965 79.15396 51.999965 79.816585 
Q 51.999965 80.567382 51.711403 81.269194 
Q 51.423731 81.970116 51.012262 82.493803 
z
" style="fill: #ffffff; stroke: #272727; stroke-width: 0.75"/>
    <path d="M 33.580838 82.493803 
Q 33.165807 81.970116 32.879026 81.269194 
Q 32.593135 80.567382 32.593135 79.816585 
Q 32.593135 79.15396 32.806885 78.547444 
Q 33.057151 77.84296 33.580838 77.14471 
L 33.93976 77.14471 
Q 33.603104 77.723616 33.494448 77.97121 
Q 33.324338 78.355069 33.22726 78.772772 
Q 33.107916 79.292897 33.107916 79.819257 
Q 33.107916 81.157866 33.93976 82.493803 
L 33.580838 82.493803 
z
M 34.385295 80.217366 
L 34.885827 80.150569 
Q 34.972217 80.576288 35.179733 80.76421 
Q 35.387248 80.952132 35.684717 80.952132 
Q 36.038295 80.952132 36.281436 80.70721 
Q 36.525467 80.462288 36.525467 80.099803 
Q 36.525467 79.755132 36.300139 79.531585 
Q 36.074811 79.307147 35.726577 79.307147 
Q 35.584967 79.307147 35.372998 79.362366 
L 35.429108 78.922397 
Q 35.478983 78.928632 35.509264 78.928632 
Q 35.829889 78.928632 36.085498 78.762085 
Q 36.341998 78.594647 36.341998 78.246413 
Q 36.341998 77.97121 36.154967 77.790413 
Q 35.968827 77.608725 35.67403 77.608725 
Q 35.381905 77.608725 35.186858 77.793085 
Q 34.991811 77.976553 34.936592 78.343491 
L 34.43517 78.254428 
Q 34.526905 77.751225 34.851983 77.474241 
Q 35.177952 77.197257 35.662452 77.197257 
Q 35.996436 77.197257 36.276983 77.340647 
Q 36.55842 77.484038 36.707155 77.731632 
Q 36.85678 77.979225 36.85678 78.257991 
Q 36.85678 78.521616 36.71428 78.738928 
Q 36.57267 78.956241 36.294795 79.084491 
Q 36.656389 79.167319 36.85678 79.430944 
Q 37.05717 79.693678 37.05717 80.089116 
Q 37.05717 80.623491 36.667077 80.994882 
Q 36.277873 81.366272 35.682045 81.366272 
Q 35.144998 81.366272 34.789639 81.046538 
Q 34.43517 80.725913 34.385295 80.217366 
z
M 40.185379 80.812303 
L 40.185379 81.294132 
L 37.488567 81.294132 
Q 37.483223 81.113335 37.546457 80.945897 
Q 37.64977 80.670694 37.875989 80.403507 
Q 38.103098 80.136319 38.532379 79.785413 
Q 39.197676 79.24035 39.43102 78.921507 
Q 39.665254 78.602663 39.665254 78.318553 
Q 39.665254 78.021085 39.451504 77.817132 
Q 39.238645 77.612288 38.896645 77.612288 
Q 38.535051 77.612288 38.317739 77.8296 
Q 38.100426 78.046022 38.097754 78.429882 
L 37.582973 78.377335 
Q 37.63552 77.8011 37.980192 77.499178 
Q 38.325754 77.197257 38.908223 77.197257 
Q 39.495145 77.197257 39.837145 77.523225 
Q 40.180036 77.848303 40.180036 78.330132 
Q 40.180036 78.575053 40.079395 78.81196 
Q 39.979645 79.047975 39.747192 79.309819 
Q 39.514739 79.571663 38.97502 80.027663 
Q 38.523473 80.406178 38.395223 80.541553 
Q 38.267864 80.676038 38.184145 80.812303 
L 40.185379 80.812303 
z
M 41.003307 81.294132 
L 41.003307 80.723241 
L 41.574198 80.723241 
L 41.574198 81.294132 
L 41.003307 81.294132 
z
M 43.076793 79.081819 
Q 42.765075 78.966928 42.614559 78.75585 
Q 42.464934 78.543882 42.464934 78.249085 
Q 42.464934 77.803772 42.784668 77.50096 
Q 43.105293 77.197257 43.636106 77.197257 
Q 44.170481 77.197257 44.49645 77.508085 
Q 44.822418 77.818022 44.822418 78.263335 
Q 44.822418 78.547444 44.672793 78.757632 
Q 44.524059 78.966928 44.221246 79.081819 
Q 44.59709 79.203835 44.793028 79.477257 
Q 44.988965 79.749788 44.988965 80.128303 
Q 44.988965 80.6511 44.618465 81.00735 
Q 44.248856 81.3636 43.645012 81.3636 
Q 43.041168 81.3636 42.670668 81.00646 
Q 42.300168 80.648428 42.300168 80.114053 
Q 42.300168 79.715944 42.50234 79.447866 
Q 42.704512 79.178897 43.076793 79.081819 
z
M 42.977043 78.232163 
Q 42.977043 78.521616 43.163184 78.705975 
Q 43.350215 78.889444 43.647684 78.889444 
Q 43.937137 78.889444 44.122387 78.707757 
Q 44.307637 78.525178 44.307637 78.260663 
Q 44.307637 77.984569 44.116153 77.796647 
Q 43.925559 77.608725 43.64234 77.608725 
Q 43.355559 77.608725 43.165856 77.793085 
Q 42.977043 77.976553 42.977043 78.232163 
z
M 42.81584 80.116725 
Q 42.81584 80.331366 42.917371 80.531757 
Q 43.018903 80.732147 43.219293 80.842585 
Q 43.419684 80.952132 43.650356 80.952132 
Q 44.009278 80.952132 44.242621 80.72146 
Q 44.476856 80.489897 44.476856 80.133647 
Q 44.476856 79.772053 44.236387 79.535147 
Q 43.995918 79.298241 43.633434 79.298241 
Q 43.279856 79.298241 43.047403 79.532475 
Q 42.81584 79.765819 42.81584 80.116725 
z
M 45.570877 78.193866 
Q 45.570877 77.756569 45.790862 77.451085 
Q 46.010846 77.14471 46.427659 77.14471 
Q 46.812409 77.14471 47.063565 77.419022 
Q 47.315612 77.692444 47.315612 78.224147 
Q 47.315612 78.7416 47.060893 79.021257 
Q 46.806174 79.300913 46.433893 79.300913 
Q 46.063393 79.300913 45.81669 79.02571 
Q 45.570877 78.750507 45.570877 78.193866 
z
M 46.441909 77.489382 
Q 46.255768 77.489382 46.131971 77.651475 
Q 46.008174 77.812678 46.008174 78.243741 
Q 46.008174 78.636507 46.132862 78.796819 
Q 46.25844 78.956241 46.441909 78.956241 
Q 46.631612 78.956241 46.755409 78.795038 
Q 46.879205 78.632944 46.879205 78.204553 
Q 46.879205 77.809116 46.753627 77.649694 
Q 46.628049 77.489382 46.441909 77.489382 
z
M 46.44458 81.444647 
L 48.676487 77.14471 
L 49.083502 77.14471 
L 46.859612 81.444647 
L 46.44458 81.444647 
z
M 48.208909 80.33671 
Q 48.208909 79.896741 48.428893 79.592147 
Q 48.648877 79.287553 49.069252 79.287553 
Q 49.453112 79.287553 49.705159 79.561866 
Q 49.957205 79.835288 49.957205 80.366991 
Q 49.957205 80.885335 49.702487 81.164991 
Q 49.447768 81.444647 49.071924 81.444647 
Q 48.702315 81.444647 48.455612 81.167663 
Q 48.208909 80.890678 48.208909 80.33671 
z
M 49.083502 79.632225 
Q 48.893799 79.632225 48.770002 79.794319 
Q 48.646205 79.955522 48.646205 80.386585 
Q 48.646205 80.776678 48.770893 80.937882 
Q 48.896471 81.099085 49.08083 81.099085 
Q 49.272315 81.099085 49.396112 80.937882 
Q 49.519909 80.776678 49.519909 80.347397 
Q 49.519909 79.95285 49.39433 79.792538 
Q 49.269643 79.632225 49.083502 79.632225 
z
M 51.012262 82.493803 
L 50.65334 82.493803 
Q 51.485184 81.157866 51.485184 79.819257 
Q 51.485184 79.295569 51.36584 78.780788 
Q 51.270543 78.363085 51.101325 77.979225 
Q 50.992668 77.72896 50.65334 77.14471 
L 51.012262 77.14471 
Q 51.535059 77.84296 51.785325 78.547444 
Q 51.999965 79.15396 51.999965 79.816585 
Q 51.999965 80.567382 51.711403 81.269194 
Q 51.423731 81.970116 51.012262 82.493803 
z
" style="fill: #ffffff"/>
   </g>
   <g id="text_2">
    <path d="M 82.085405 74.105185 
L 82.585936 74.038388 
Q 82.672327 74.464107 82.879843 74.652028 
Q 83.087358 74.83995 83.384827 74.83995 
Q 83.738405 74.83995 83.981546 74.595028 
Q 84.225577 74.350107 84.225577 73.987622 
Q 84.225577 73.64295 84.000249 73.419403 
Q 83.774921 73.194966 83.426686 73.194966 
Q 83.285077 73.194966 83.073108 73.250185 
L 83.129218 72.810216 
Q 83.179093 72.81645 83.209374 72.81645 
Q 83.529999 72.81645 83.785608 72.649903 
Q 84.042108 72.482466 84.042108 72.134232 
Q 84.042108 71.859028 83.855077 71.678232 
Q 83.668936 71.496544 83.37414 71.496544 
Q 83.082015 71.496544 82.886968 71.680903 
Q 82.691921 71.864372 82.636702 72.23131 
L 82.13528 72.142247 
Q 82.227015 71.639044 82.552093 71.36206 
Q 82.878061 71.085075 83.362561 71.085075 
Q 83.696546 71.085075 83.977093 71.228466 
Q 84.25853 71.371857 84.407265 71.61945 
Q 84.55689 71.867044 84.55689 72.14581 
Q 84.55689 72.409435 84.41439 72.626747 
Q 84.27278 72.84406 83.994905 72.97231 
Q 84.356499 73.055138 84.55689 73.318763 
Q 84.75728 73.581497 84.75728 73.976935 
Q 84.75728 74.51131 84.367186 74.8827 
Q 83.977983 75.254091 83.382155 75.254091 
Q 82.845108 75.254091 82.489749 74.934357 
Q 82.13528 74.613732 82.085405 74.105185 
z
M 85.522661 75.18195 
L 85.522661 74.61106 
L 86.092661 74.61106 
L 86.092661 75.18195 
Q 86.092661 75.496341 85.981333 75.689607 
Q 85.870005 75.883763 85.628645 75.988857 
L 85.488817 75.775107 
Q 85.647349 75.705638 85.722161 75.570263 
Q 85.797864 75.434888 85.80677 75.18195 
L 85.522661 75.18195 
z
M 86.836444 74.1132 
L 87.361913 74.068669 
Q 87.420694 74.452528 87.633554 74.646685 
Q 87.846413 74.83995 88.147444 74.83995 
Q 88.509038 74.83995 88.759304 74.567419 
Q 89.009569 74.293997 89.009569 73.843341 
Q 89.009569 73.41495 88.769101 73.167357 
Q 88.528632 72.918872 88.138538 72.918872 
Q 87.896288 72.918872 87.701241 73.02931 
Q 87.507085 73.138857 87.395757 73.31431 
L 86.925507 73.252857 
L 87.320054 71.157216 
L 89.349788 71.157216 
L 89.349788 71.636372 
L 87.720835 71.636372 
L 87.501741 72.732732 
Q 87.868679 72.476232 88.272132 72.476232 
Q 88.806507 72.476232 89.173444 72.846732 
Q 89.541272 73.217232 89.541272 73.79881 
Q 89.541272 74.352778 89.218866 74.756232 
Q 88.826101 75.251419 88.147444 75.251419 
Q 87.590804 75.251419 87.238116 74.9397 
Q 86.886319 74.627982 86.836444 74.1132 
z
M 90.039466 71.636372 
L 90.039466 71.154544 
L 92.68106 71.154544 
L 92.68106 71.544638 
Q 92.290966 71.958778 91.907997 72.646341 
Q 91.525919 73.333903 91.317513 74.060653 
Q 91.166997 74.572763 91.125138 75.18195 
L 90.610356 75.18195 
Q 90.618372 74.700122 90.799169 74.018794 
Q 90.979966 73.336575 91.318403 72.703341 
Q 91.656841 72.070107 92.038028 71.636372 
L 90.039466 71.636372 
z
M 93.179253 74.105185 
L 93.679784 74.038388 
Q 93.766175 74.464107 93.97369 74.652028 
Q 94.181206 74.83995 94.478675 74.83995 
Q 94.832253 74.83995 95.075394 74.595028 
Q 95.319425 74.350107 95.319425 73.987622 
Q 95.319425 73.64295 95.094097 73.419403 
Q 94.868769 73.194966 94.520534 73.194966 
Q 94.378925 73.194966 94.166956 73.250185 
L 94.223065 72.810216 
Q 94.27294 72.81645 94.303222 72.81645 
Q 94.623847 72.81645 94.879456 72.649903 
Q 95.135956 72.482466 95.135956 72.134232 
Q 95.135956 71.859028 94.948925 71.678232 
Q 94.762784 71.496544 94.467987 71.496544 
Q 94.175862 71.496544 93.980815 71.680903 
Q 93.785769 71.864372 93.73055 72.23131 
L 93.229128 72.142247 
Q 93.320862 71.639044 93.64594 71.36206 
Q 93.971909 71.085075 94.456409 71.085075 
Q 94.790394 71.085075 95.07094 71.228466 
Q 95.352378 71.371857 95.501112 71.61945 
Q 95.650737 71.867044 95.650737 72.14581 
Q 95.650737 72.409435 95.508237 72.626747 
Q 95.366628 72.84406 95.088753 72.97231 
Q 95.450347 73.055138 95.650737 73.318763 
Q 95.851128 73.581497 95.851128 73.976935 
Q 95.851128 74.51131 95.461034 74.8827 
Q 95.071831 75.254091 94.476003 75.254091 
Q 93.938956 75.254091 93.583597 74.934357 
Q 93.229128 74.613732 93.179253 74.105185 
z
" style="fill: #ffffff; stroke: #272727; stroke-width: 0.75"/>
    <path d="M 82.085405 74.105185 
L 82.585936 74.038388 
Q 82.672327 74.464107 82.879843 74.652028 
Q 83.087358 74.83995 83.384827 74.83995 
Q 83.738405 74.83995 83.981546 74.595028 
Q 84.225577 74.350107 84.225577 73.987622 
Q 84.225577 73.64295 84.000249 73.419403 
Q 83.774921 73.194966 83.426686 73.194966 
Q 83.285077 73.194966 83.073108 73.250185 
L 83.129218 72.810216 
Q 83.179093 72.81645 83.209374 72.81645 
Q 83.529999 72.81645 83.785608 72.649903 
Q 84.042108 72.482466 84.042108 72.134232 
Q 84.042108 71.859028 83.855077 71.678232 
Q 83.668936 71.496544 83.37414 71.496544 
Q 83.082015 71.496544 82.886968 71.680903 
Q 82.691921 71.864372 82.636702 72.23131 
L 82.13528 72.142247 
Q 82.227015 71.639044 82.552093 71.36206 
Q 82.878061 71.085075 83.362561 71.085075 
Q 83.696546 71.085075 83.977093 71.228466 
Q 84.25853 71.371857 84.407265 71.61945 
Q 84.55689 71.867044 84.55689 72.14581 
Q 84.55689 72.409435 84.41439 72.626747 
Q 84.27278 72.84406 83.994905 72.97231 
Q 84.356499 73.055138 84.55689 73.318763 
Q 84.75728 73.581497 84.75728 73.976935 
Q 84.75728 74.51131 84.367186 74.8827 
Q 83.977983 75.254091 83.382155 75.254091 
Q 82.845108 75.254091 82.489749 74.934357 
Q 82.13528 74.613732 82.085405 74.105185 
z
M 85.522661 75.18195 
L 85.522661 74.61106 
L 86.092661 74.61106 
L 86.092661 75.18195 
Q 86.092661 75.496341 85.981333 75.689607 
Q 85.870005 75.883763 85.628645 75.988857 
L 85.488817 75.775107 
Q 85.647349 75.705638 85.722161 75.570263 
Q 85.797864 75.434888 85.80677 75.18195 
L 85.522661 75.18195 
z
M 86.836444 74.1132 
L 87.361913 74.068669 
Q 87.420694 74.452528 87.633554 74.646685 
Q 87.846413 74.83995 88.147444 74.83995 
Q 88.509038 74.83995 88.759304 74.567419 
Q 89.009569 74.293997 89.009569 73.843341 
Q 89.009569 73.41495 88.769101 73.167357 
Q 88.528632 72.918872 88.138538 72.918872 
Q 87.896288 72.918872 87.701241 73.02931 
Q 87.507085 73.138857 87.395757 73.31431 
L 86.925507 73.252857 
L 87.320054 71.157216 
L 89.349788 71.157216 
L 89.349788 71.636372 
L 87.720835 71.636372 
L 87.501741 72.732732 
Q 87.868679 72.476232 88.272132 72.476232 
Q 88.806507 72.476232 89.173444 72.846732 
Q 89.541272 73.217232 89.541272 73.79881 
Q 89.541272 74.352778 89.218866 74.756232 
Q 88.826101 75.251419 88.147444 75.251419 
Q 87.590804 75.251419 87.238116 74.9397 
Q 86.886319 74.627982 86.836444 74.1132 
z
M 90.039466 71.636372 
L 90.039466 71.154544 
L 92.68106 71.154544 
L 92.68106 71.544638 
Q 92.290966 71.958778 91.907997 72.646341 
Q 91.525919 73.333903 91.317513 74.060653 
Q 91.166997 74.572763 91.125138 75.18195 
L 90.610356 75.18195 
Q 90.618372 74.700122 90.799169 74.018794 
Q 90.979966 73.336575 91.318403 72.703341 
Q 91.656841 72.070107 92.038028 71.636372 
L 90.039466 71.636372 
z
M 93.179253 74.105185 
L 93.679784 74.038388 
Q 93.766175 74.464107 93.97369 74.652028 
Q 94.181206 74.83995 94.478675 74.83995 
Q 94.832253 74.83995 95.075394 74.595028 
Q 95.319425 74.350107 95.319425 73.987622 
Q 95.319425 73.64295 95.094097 73.419403 
Q 94.868769 73.194966 94.520534 73.194966 
Q 94.378925 73.194966 94.166956 73.250185 
L 94.223065 72.810216 
Q 94.27294 72.81645 94.303222 72.81645 
Q 94.623847 72.81645 94.879456 72.649903 
Q 95.135956 72.482466 95.135956 72.134232 
Q 95.135956 71.859028 94.948925 71.678232 
Q 94.762784 71.496544 94.467987 71.496544 
Q 94.175862 71.496544 93.980815 71.680903 
Q 93.785769 71.864372 93.73055 72.23131 
L 93.229128 72.142247 
Q 93.320862 71.639044 93.64594 71.36206 
Q 93.971909 71.085075 94.456409 71.085075 
Q 94.790394 71.085075 95.07094 71.228466 
Q 95.352378 71.371857 95.501112 71.61945 
Q 95.650737 71.867044 95.650737 72.14581 
Q 95.650737 72.409435 95.508237 72.626747 
Q 95.366628 72.84406 95.088753 72.97231 
Q 95.450347 73.055138 95.650737 73.318763 
Q 95.851128 73.581497 95.851128 73.976935 
Q 95.851128 74.51131 95.461034 74.8827 
Q 95.071831 75.254091 94.476003 75.254091 
Q 93.938956 75.254091 93.583597 74.934357 
Q 93.229128 74.613732 93.179253 74.105185 
z
" style="fill: #ffffff"/>
    <path d="M 80.331765 82.493803 
Q 79.916733 81.970116 79.629952 81.269194 
Q 79.344061 80.567382 79.344061 79.816585 
Q 79.344061 79.15396 79.557811 78.547444 
Q 79.808077 77.84296 80.331765 77.14471 
L 80.690686 77.14471 
Q 80.35403 77.723616 80.245374 77.97121 
Q 80.075265 78.355069 79.978186 78.772772 
Q 79.858843 79.292897 79.858843 79.819257 
Q 79.858843 81.157866 80.690686 82.493803 
L 80.331765 82.493803 
z
M 83.732394 78.21346 
L 83.234534 78.251757 
Q 83.167737 77.95696 83.045722 77.823366 
Q 82.841769 77.608725 82.5443 77.608725 
Q 82.304722 77.608725 82.123925 77.742319 
Q 81.887909 77.9151 81.750753 78.246413 
Q 81.614487 78.577725 81.609144 79.189585 
Q 81.78994 78.914382 82.051784 78.780788 
Q 82.313628 78.647194 82.600409 78.647194 
Q 83.10094 78.647194 83.452737 79.015913 
Q 83.805425 79.384632 83.805425 79.968882 
Q 83.805425 80.353632 83.639769 80.683163 
Q 83.474112 81.012694 83.184659 81.188147 
Q 82.895206 81.3636 82.527378 81.3636 
Q 81.901269 81.3636 81.505831 80.903147 
Q 81.111284 80.442694 81.111284 79.384632 
Q 81.111284 78.201882 81.54769 77.664835 
Q 81.928878 77.197257 82.574581 77.197257 
Q 83.056409 77.197257 83.363675 77.467116 
Q 83.671831 77.736975 83.732394 78.21346 
z
M 81.687519 79.972444 
Q 81.687519 80.230725 81.797065 80.467632 
Q 81.906612 80.703647 82.104331 80.828335 
Q 82.30205 80.952132 82.519362 80.952132 
Q 82.836425 80.952132 83.064425 80.696522 
Q 83.293315 80.440022 83.293315 80.000053 
Q 83.293315 79.577007 83.067097 79.333866 
Q 82.841769 79.089835 82.499769 79.089835 
Q 82.16044 79.089835 81.923534 79.333866 
Q 81.687519 79.577007 81.687519 79.972444 
z
M 86.936306 80.812303 
L 86.936306 81.294132 
L 84.239493 81.294132 
Q 84.234149 81.113335 84.297384 80.945897 
Q 84.400696 80.670694 84.626915 80.403507 
Q 84.854024 80.136319 85.283306 79.785413 
Q 85.948603 79.24035 86.181946 78.921507 
Q 86.416181 78.602663 86.416181 78.318553 
Q 86.416181 78.021085 86.202431 77.817132 
Q 85.989571 77.612288 85.647571 77.612288 
Q 85.285978 77.612288 85.068665 77.8296 
Q 84.851353 78.046022 84.848681 78.429882 
L 84.333899 78.377335 
Q 84.386446 77.8011 84.731118 77.499178 
Q 85.076681 77.197257 85.659149 77.197257 
Q 86.246071 77.197257 86.588071 77.523225 
Q 86.930962 77.848303 86.930962 78.330132 
Q 86.930962 78.575053 86.830321 78.81196 
Q 86.730571 79.047975 86.498118 79.309819 
Q 86.265665 79.571663 85.725946 80.027663 
Q 85.274399 80.406178 85.146149 80.541553 
Q 85.01879 80.676038 84.935071 80.812303 
L 86.936306 80.812303 
z
M 87.754233 81.294132 
L 87.754233 80.723241 
L 88.325124 80.723241 
L 88.325124 81.294132 
L 87.754233 81.294132 
z
M 90.943673 81.294132 
L 90.443142 81.294132 
L 90.443142 78.102132 
Q 90.262345 78.274022 89.968438 78.446803 
Q 89.674532 78.619585 89.441188 78.705975 
L 89.441188 78.221475 
Q 89.861563 78.023757 90.175954 77.74321 
Q 90.490345 77.461772 90.621267 77.197257 
L 90.943673 77.197257 
L 90.943673 81.294132 
z
M 92.321804 78.193866 
Q 92.321804 77.756569 92.541788 77.451085 
Q 92.761772 77.14471 93.178585 77.14471 
Q 93.563335 77.14471 93.814491 77.419022 
Q 94.066538 77.692444 94.066538 78.224147 
Q 94.066538 78.7416 93.811819 79.021257 
Q 93.557101 79.300913 93.184819 79.300913 
Q 92.814319 79.300913 92.567616 79.02571 
Q 92.321804 78.750507 92.321804 78.193866 
z
M 93.192835 77.489382 
Q 93.006694 77.489382 92.882897 77.651475 
Q 92.759101 77.812678 92.759101 78.243741 
Q 92.759101 78.636507 92.883788 78.796819 
Q 93.009366 78.956241 93.192835 78.956241 
Q 93.382538 78.956241 93.506335 78.795038 
Q 93.630132 78.632944 93.630132 78.204553 
Q 93.630132 77.809116 93.504554 77.649694 
Q 93.378976 77.489382 93.192835 77.489382 
z
M 93.195507 81.444647 
L 95.427413 77.14471 
L 95.834429 77.14471 
L 93.610538 81.444647 
L 93.195507 81.444647 
z
M 94.959835 80.33671 
Q 94.959835 79.896741 95.179819 79.592147 
Q 95.399804 79.287553 95.820179 79.287553 
Q 96.204038 79.287553 96.456085 79.561866 
Q 96.708132 79.835288 96.708132 80.366991 
Q 96.708132 80.885335 96.453413 81.164991 
Q 96.198694 81.444647 95.822851 81.444647 
Q 95.453241 81.444647 95.206538 81.167663 
Q 94.959835 80.890678 94.959835 80.33671 
z
M 95.834429 79.632225 
Q 95.644726 79.632225 95.520929 79.794319 
Q 95.397132 79.955522 95.397132 80.386585 
Q 95.397132 80.776678 95.521819 80.937882 
Q 95.647397 81.099085 95.831757 81.099085 
Q 96.023241 81.099085 96.147038 80.937882 
Q 96.270835 80.776678 96.270835 80.347397 
Q 96.270835 79.95285 96.145257 79.792538 
Q 96.020569 79.632225 95.834429 79.632225 
z
M 97.763188 82.493803 
L 97.404267 82.493803 
Q 98.23611 81.157866 98.23611 79.819257 
Q 98.23611 79.295569 98.116767 78.780788 
Q 98.02147 78.363085 97.852251 77.979225 
Q 97.743595 77.72896 97.404267 77.14471 
L 97.763188 77.14471 
Q 98.285985 77.84296 98.536251 78.547444 
Q 98.750892 79.15396 98.750892 79.816585 
Q 98.750892 80.567382 98.462329 81.269194 
Q 98.174657 81.970116 97.763188 82.493803 
z
" style="fill: #ffffff; stroke: #272727; stroke-width: 0.75"/>
    <path d="M 80.331765 82.493803 
Q 79.916733 81.970116 79.629952 81.269194 
Q 79.344061 80.567382 79.344061 79.816585 
Q 79.344061 79.15396 79.557811 78.547444 
Q 79.808077 77.84296 80.331765 77.14471 
L 80.690686 77.14471 
Q 80.35403 77.723616 80.245374 77.97121 
Q 80.075265 78.355069 79.978186 78.772772 
Q 79.858843 79.292897 79.858843 79.819257 
Q 79.858843 81.157866 80.690686 82.493803 
L 80.331765 82.493803 
z
M 83.732394 78.21346 
L 83.234534 78.251757 
Q 83.167737 77.95696 83.045722 77.823366 
Q 82.841769 77.608725 82.5443 77.608725 
Q 82.304722 77.608725 82.123925 77.742319 
Q 81.887909 77.9151 81.750753 78.246413 
Q 81.614487 78.577725 81.609144 79.189585 
Q 81.78994 78.914382 82.051784 78.780788 
Q 82.313628 78.647194 82.600409 78.647194 
Q 83.10094 78.647194 83.452737 79.015913 
Q 83.805425 79.384632 83.805425 79.968882 
Q 83.805425 80.353632 83.639769 80.683163 
Q 83.474112 81.012694 83.184659 81.188147 
Q 82.895206 81.3636 82.527378 81.3636 
Q 81.901269 81.3636 81.505831 80.903147 
Q 81.111284 80.442694 81.111284 79.384632 
Q 81.111284 78.201882 81.54769 77.664835 
Q 81.928878 77.197257 82.574581 77.197257 
Q 83.056409 77.197257 83.363675 77.467116 
Q 83.671831 77.736975 83.732394 78.21346 
z
M 81.687519 79.972444 
Q 81.687519 80.230725 81.797065 80.467632 
Q 81.906612 80.703647 82.104331 80.828335 
Q 82.30205 80.952132 82.519362 80.952132 
Q 82.836425 80.952132 83.064425 80.696522 
Q 83.293315 80.440022 83.293315 80.000053 
Q 83.293315 79.577007 83.067097 79.333866 
Q 82.841769 79.089835 82.499769 79.089835 
Q 82.16044 79.089835 81.923534 79.333866 
Q 81.687519 79.577007 81.687519 79.972444 
z
M 86.936306 80.812303 
L 86.936306 81.294132 
L 84.239493 81.294132 
Q 84.234149 81.113335 84.297384 80.945897 
Q 84.400696 80.670694 84.626915 80.403507 
Q 84.854024 80.136319 85.283306 79.785413 
Q 85.948603 79.24035 86.181946 78.921507 
Q 86.416181 78.602663 86.416181 78.318553 
Q 86.416181 78.021085 86.202431 77.817132 
Q 85.989571 77.612288 85.647571 77.612288 
Q 85.285978 77.612288 85.068665 77.8296 
Q 84.851353 78.046022 84.848681 78.429882 
L 84.333899 78.377335 
Q 84.386446 77.8011 84.731118 77.499178 
Q 85.076681 77.197257 85.659149 77.197257 
Q 86.246071 77.197257 86.588071 77.523225 
Q 86.930962 77.848303 86.930962 78.330132 
Q 86.930962 78.575053 86.830321 78.81196 
Q 86.730571 79.047975 86.498118 79.309819 
Q 86.265665 79.571663 85.725946 80.027663 
Q 85.274399 80.406178 85.146149 80.541553 
Q 85.01879 80.676038 84.935071 80.812303 
L 86.936306 80.812303 
z
M 87.754233 81.294132 
L 87.754233 80.723241 
L 88.325124 80.723241 
L 88.325124 81.294132 
L 87.754233 81.294132 
z
M 90.943673 81.294132 
L 90.443142 81.294132 
L 90.443142 78.102132 
Q 90.262345 78.274022 89.968438 78.446803 
Q 89.674532 78.619585 89.441188 78.705975 
L 89.441188 78.221475 
Q 89.861563 78.023757 90.175954 77.74321 
Q 90.490345 77.461772 90.621267 77.197257 
L 90.943673 77.197257 
L 90.943673 81.294132 
z
M 92.321804 78.193866 
Q 92.321804 77.756569 92.541788 77.451085 
Q 92.761772 77.14471 93.178585 77.14471 
Q 93.563335 77.14471 93.814491 77.419022 
Q 94.066538 77.692444 94.066538 78.224147 
Q 94.066538 78.7416 93.811819 79.021257 
Q 93.557101 79.300913 93.184819 79.300913 
Q 92.814319 79.300913 92.567616 79.02571 
Q 92.321804 78.750507 92.321804 78.193866 
z
M 93.192835 77.489382 
Q 93.006694 77.489382 92.882897 77.651475 
Q 92.759101 77.812678 92.759101 78.243741 
Q 92.759101 78.636507 92.883788 78.796819 
Q 93.009366 78.956241 93.192835 78.956241 
Q 93.382538 78.956241 93.506335 78.795038 
Q 93.630132 78.632944 93.630132 78.204553 
Q 93.630132 77.809116 93.504554 77.649694 
Q 93.378976 77.489382 93.192835 77.489382 
z
M 93.195507 81.444647 
L 95.427413 77.14471 
L 95.834429 77.14471 
L 93.610538 81.444647 
L 93.195507 81.444647 
z
M 94.959835 80.33671 
Q 94.959835 79.896741 95.179819 79.592147 
Q 95.399804 79.287553 95.820179 79.287553 
Q 96.204038 79.287553 96.456085 79.561866 
Q 96.708132 79.835288 96.708132 80.366991 
Q 96.708132 80.885335 96.453413 81.164991 
Q 96.198694 81.444647 95.822851 81.444647 
Q 95.453241 81.444647 95.206538 81.167663 
Q 94.959835 80.890678 94.959835 80.33671 
z
M 95.834429 79.632225 
Q 95.644726 79.632225 95.520929 79.794319 
Q 95.397132 79.955522 95.397132 80.386585 
Q 95.397132 80.776678 95.521819 80.937882 
Q 95.647397 81.099085 95.831757 81.099085 
Q 96.023241 81.099085 96.147038 80.937882 
Q 96.270835 80.776678 96.270835 80.347397 
Q 96.270835 79.95285 96.145257 79.792538 
Q 96.020569 79.632225 95.834429 79.632225 
z
M 97.763188 82.493803 
L 97.404267 82.493803 
Q 98.23611 81.157866 98.23611 79.819257 
Q 98.23611 79.295569 98.116767 78.780788 
Q 98.02147 78.363085 97.852251 77.979225 
Q 97.743595 77.72896 97.404267 77.14471 
L 97.763188 77.14471 
Q 98.285985 77.84296 98.536251 78.547444 
Q 98.750892 79.15396 98.750892 79.816585 
Q 98.750892 80.567382 98.462329 81.269194 
Q 98.174657 81.970116 97.763188 82.493803 
z
" style="fill: #ffffff"/>
   </g>
   <g id="text_3">
    <path d="M 60.38382 74.700122 
L 60.38382 75.18195 
L 57.687007 75.18195 
Q 57.681663 75.001153 57.744898 74.833716 
Q 57.84821 74.558513 58.074429 74.291325 
Q 58.301538 74.024138 58.73082 73.673232 
Q 59.396117 73.128169 59.62946 72.809325 
Q 59.863695 72.490482 59.863695 72.206372 
Q 59.863695 71.908903 59.649945 71.70495 
Q 59.437085 71.500107 59.095085 71.500107 
Q 58.733492 71.500107 58.516179 71.717419 
Q 58.298867 71.933841 58.296195 72.3177 
L 57.781413 72.265153 
Q 57.83396 71.688919 58.178632 71.386997 
Q 58.524195 71.085075 59.106663 71.085075 
Q 59.693585 71.085075 60.035585 71.411044 
Q 60.378476 71.736122 60.378476 72.21795 
Q 60.378476 72.462872 60.277835 72.699778 
Q 60.178085 72.935794 59.945632 73.197638 
Q 59.713179 73.459482 59.17346 73.915482 
Q 58.721913 74.293997 58.593663 74.429372 
Q 58.466304 74.563857 58.382585 74.700122 
L 60.38382 74.700122 
z
M 60.996013 74.238778 
L 61.477841 74.194247 
Q 61.538404 74.533575 61.711185 74.686763 
Q 61.883966 74.83995 62.153825 74.83995 
Q 62.384497 74.83995 62.558169 74.733966 
Q 62.732732 74.627982 62.84406 74.451638 
Q 62.955388 74.274403 63.0302 73.974263 
Q 63.105904 73.673232 63.105904 73.361513 
Q 63.105904 73.32856 63.103232 73.261763 
Q 62.952716 73.50045 62.692654 73.650075 
Q 62.432591 73.79881 62.128888 73.79881 
Q 61.622122 73.79881 61.271216 73.431872 
Q 60.9212 73.064044 60.9212 72.462872 
Q 60.9212 71.842107 61.287247 71.463591 
Q 61.653294 71.085075 62.2037 71.085075 
Q 62.60181 71.085075 62.931341 71.299716 
Q 63.261763 71.513466 63.432763 71.910685 
Q 63.603763 72.307013 63.603763 73.0587 
Q 63.603763 73.840669 63.433654 74.303794 
Q 63.264435 74.766919 62.928669 75.009169 
Q 62.593794 75.251419 62.143138 75.251419 
Q 61.663982 75.251419 61.360279 74.986013 
Q 61.057466 74.719716 60.996013 74.238778 
z
M 63.047122 72.437935 
Q 63.047122 72.005982 62.817341 71.753044 
Q 62.58845 71.500107 62.265154 71.500107 
Q 61.931169 71.500107 61.683575 71.772638 
Q 61.435982 72.045169 61.435982 72.479794 
Q 61.435982 72.868997 61.671107 73.113028 
Q 61.906232 73.356169 62.250904 73.356169 
Q 62.599138 73.356169 62.822685 73.113028 
Q 63.047122 72.868997 63.047122 72.437935 
z
M 65.977613 75.18195 
L 65.477081 75.18195 
L 65.477081 71.98995 
Q 65.296284 72.161841 65.002378 72.334622 
Q 64.708472 72.507403 64.475128 72.593794 
L 64.475128 72.109294 
Q 64.895503 71.911575 65.209894 71.631028 
Q 65.524284 71.349591 65.655206 71.085075 
L 65.977613 71.085075 
L 65.977613 75.18195 
z
" style="fill: #272727; stroke: #ffffff"/>
    <path d="M 60.38382 74.700122 
L 60.38382 75.18195 
L 57.687007 75.18195 
Q 57.681663 75.001153 57.744898 74.833716 
Q 57.84821 74.558513 58.074429 74.291325 
Q 58.301538 74.024138 58.73082 73.673232 
Q 59.396117 73.128169 59.62946 72.809325 
Q 59.863695 72.490482 59.863695 72.206372 
Q 59.863695 71.908903 59.649945 71.70495 
Q 59.437085 71.500107 59.095085 71.500107 
Q 58.733492 71.500107 58.516179 71.717419 
Q 58.298867 71.933841 58.296195 72.3177 
L 57.781413 72.265153 
Q 57.83396 71.688919 58.178632 71.386997 
Q 58.524195 71.085075 59.106663 71.085075 
Q 59.693585 71.085075 60.035585 71.411044 
Q 60.378476 71.736122 60.378476 72.21795 
Q 60.378476 72.462872 60.277835 72.699778 
Q 60.178085 72.935794 59.945632 73.197638 
Q 59.713179 73.459482 59.17346 73.915482 
Q 58.721913 74.293997 58.593663 74.429372 
Q 58.466304 74.563857 58.382585 74.700122 
L 60.38382 74.700122 
z
M 60.996013 74.238778 
L 61.477841 74.194247 
Q 61.538404 74.533575 61.711185 74.686763 
Q 61.883966 74.83995 62.153825 74.83995 
Q 62.384497 74.83995 62.558169 74.733966 
Q 62.732732 74.627982 62.84406 74.451638 
Q 62.955388 74.274403 63.0302 73.974263 
Q 63.105904 73.673232 63.105904 73.361513 
Q 63.105904 73.32856 63.103232 73.261763 
Q 62.952716 73.50045 62.692654 73.650075 
Q 62.432591 73.79881 62.128888 73.79881 
Q 61.622122 73.79881 61.271216 73.431872 
Q 60.9212 73.064044 60.9212 72.462872 
Q 60.9212 71.842107 61.287247 71.463591 
Q 61.653294 71.085075 62.2037 71.085075 
Q 62.60181 71.085075 62.931341 71.299716 
Q 63.261763 71.513466 63.432763 71.910685 
Q 63.603763 72.307013 63.603763 73.0587 
Q 63.603763 73.840669 63.433654 74.303794 
Q 63.264435 74.766919 62.928669 75.009169 
Q 62.593794 75.251419 62.143138 75.251419 
Q 61.663982 75.251419 61.360279 74.986013 
Q 61.057466 74.719716 60.996013 74.238778 
z
M 63.047122 72.437935 
Q 63.047122 72.005982 62.817341 71.753044 
Q 62.58845 71.500107 62.265154 71.500107 
Q 61.931169 71.500107 61.683575 71.772638 
Q 61.435982 72.045169 61.435982 72.479794 
Q 61.435982 72.868997 61.671107 73.113028 
Q 61.906232 73.356169 62.250904 73.356169 
Q 62.599138 73.356169 62.822685 73.113028 
Q 63.047122 72.868997 63.047122 72.437935 
z
M 65.977613 75.18195 
L 65.477081 75.18195 
L 65.477081 71.98995 
Q 65.296284 72.161841 65.002378 72.334622 
Q 64.708472 72.507403 64.475128 72.593794 
L 64.475128 72.109294 
Q 64.895503 71.911575 65.209894 71.631028 
Q 65.524284 71.349591 65.655206 71.085075 
L 65.977613 71.085075 
L 65.977613 75.18195 
z
" style="fill: #272727"/>
    <path d="M 55.208398 82.493803 
Q 54.793367 81.970116 54.506585 81.269194 
Q 54.220695 80.567382 54.220695 79.816585 
Q 54.220695 79.15396 54.434445 78.547444 
Q 54.68471 77.84296 55.208398 77.14471 
L 55.56732 77.14471 
Q 55.230663 77.723616 55.122007 77.97121 
Q 54.951898 78.355069 54.85482 78.772772 
Q 54.735476 79.292897 54.735476 79.819257 
Q 54.735476 81.157866 55.56732 82.493803 
L 55.208398 82.493803 
z
M 56.010183 80.225382 
L 56.535652 80.18085 
Q 56.594433 80.56471 56.807292 80.758866 
Q 57.020152 80.952132 57.321183 80.952132 
Q 57.682777 80.952132 57.933042 80.6796 
Q 58.183308 80.406178 58.183308 79.955522 
Q 58.183308 79.527132 57.942839 79.279538 
Q 57.70237 79.031053 57.312277 79.031053 
Q 57.070027 79.031053 56.87498 79.141491 
Q 56.680824 79.251038 56.569495 79.426491 
L 56.099245 79.365038 
L 56.493792 77.269397 
L 58.523527 77.269397 
L 58.523527 77.748553 
L 56.894574 77.748553 
L 56.67548 78.844913 
Q 57.042417 78.588413 57.44587 78.588413 
Q 57.980245 78.588413 58.347183 78.958913 
Q 58.715011 79.329413 58.715011 79.910991 
Q 58.715011 80.46496 58.392605 80.868413 
Q 57.999839 81.3636 57.321183 81.3636 
Q 56.764542 81.3636 56.411855 81.051882 
Q 56.060058 80.740163 56.010183 80.225382 
z
M 59.460798 81.294132 
L 59.460798 80.723241 
L 60.031689 80.723241 
L 60.031689 81.294132 
L 59.460798 81.294132 
z
M 62.650238 81.294132 
L 62.149706 81.294132 
L 62.149706 78.102132 
Q 61.968909 78.274022 61.675003 78.446803 
Q 61.381097 78.619585 61.147753 78.705975 
L 61.147753 78.221475 
Q 61.568128 78.023757 61.882519 77.74321 
Q 62.196909 77.461772 62.327831 77.197257 
L 62.650238 77.197257 
L 62.650238 81.294132 
z
M 64.028368 78.193866 
Q 64.028368 77.756569 64.248353 77.451085 
Q 64.468337 77.14471 64.88515 77.14471 
Q 65.2699 77.14471 65.521056 77.419022 
Q 65.773103 77.692444 65.773103 78.224147 
Q 65.773103 78.7416 65.518384 79.021257 
Q 65.263665 79.300913 64.891384 79.300913 
Q 64.520884 79.300913 64.274181 79.02571 
Q 64.028368 78.750507 64.028368 78.193866 
z
M 64.8994 77.489382 
Q 64.713259 77.489382 64.589462 77.651475 
Q 64.465665 77.812678 64.465665 78.243741 
Q 64.465665 78.636507 64.590353 78.796819 
Q 64.715931 78.956241 64.8994 78.956241 
Q 65.089103 78.956241 65.2129 78.795038 
Q 65.336697 78.632944 65.336697 78.204553 
Q 65.336697 77.809116 65.211118 77.649694 
Q 65.08554 77.489382 64.8994 77.489382 
z
M 64.902072 81.444647 
L 67.133978 77.14471 
L 67.540993 77.14471 
L 65.317103 81.444647 
L 64.902072 81.444647 
z
M 66.6664 80.33671 
Q 66.6664 79.896741 66.886384 79.592147 
Q 67.106368 79.287553 67.526743 79.287553 
Q 67.910603 79.287553 68.16265 79.561866 
Q 68.414697 79.835288 68.414697 80.366991 
Q 68.414697 80.885335 68.159978 81.164991 
Q 67.905259 81.444647 67.529415 81.444647 
Q 67.159806 81.444647 66.913103 81.167663 
Q 66.6664 80.890678 66.6664 80.33671 
z
M 67.540993 79.632225 
Q 67.35129 79.632225 67.227493 79.794319 
Q 67.103697 79.955522 67.103697 80.386585 
Q 67.103697 80.776678 67.228384 80.937882 
Q 67.353962 81.099085 67.538322 81.099085 
Q 67.729806 81.099085 67.853603 80.937882 
Q 67.9774 80.776678 67.9774 80.347397 
Q 67.9774 79.95285 67.851822 79.792538 
Q 67.727134 79.632225 67.540993 79.632225 
z
M 69.469753 82.493803 
L 69.110831 82.493803 
Q 69.942675 81.157866 69.942675 79.819257 
Q 69.942675 79.295569 69.823331 78.780788 
Q 69.728034 78.363085 69.558816 77.979225 
Q 69.450159 77.72896 69.110831 77.14471 
L 69.469753 77.14471 
Q 69.99255 77.84296 70.242816 78.547444 
Q 70.457456 79.15396 70.457456 79.816585 
Q 70.457456 80.567382 70.168894 81.269194 
Q 69.881222 81.970116 69.469753 82.493803 
z
" style="fill: #272727; stroke: #ffffff"/>
    <path d="M 55.208398 82.493803 
Q 54.793367 81.970116 54.506585 81.269194 
Q 54.220695 80.567382 54.220695 79.816585 
Q 54.220695 79.15396 54.434445 78.547444 
Q 54.68471 77.84296 55.208398 77.14471 
L 55.56732 77.14471 
Q 55.230663 77.723616 55.122007 77.97121 
Q 54.951898 78.355069 54.85482 78.772772 
Q 54.735476 79.292897 54.735476 79.819257 
Q 54.735476 81.157866 55.56732 82.493803 
L 55.208398 82.493803 
z
M 56.010183 80.225382 
L 56.535652 80.18085 
Q 56.594433 80.56471 56.807292 80.758866 
Q 57.020152 80.952132 57.321183 80.952132 
Q 57.682777 80.952132 57.933042 80.6796 
Q 58.183308 80.406178 58.183308 79.955522 
Q 58.183308 79.527132 57.942839 79.279538 
Q 57.70237 79.031053 57.312277 79.031053 
Q 57.070027 79.031053 56.87498 79.141491 
Q 56.680824 79.251038 56.569495 79.426491 
L 56.099245 79.365038 
L 56.493792 77.269397 
L 58.523527 77.269397 
L 58.523527 77.748553 
L 56.894574 77.748553 
L 56.67548 78.844913 
Q 57.042417 78.588413 57.44587 78.588413 
Q 57.980245 78.588413 58.347183 78.958913 
Q 58.715011 79.329413 58.715011 79.910991 
Q 58.715011 80.46496 58.392605 80.868413 
Q 57.999839 81.3636 57.321183 81.3636 
Q 56.764542 81.3636 56.411855 81.051882 
Q 56.060058 80.740163 56.010183 80.225382 
z
M 59.460798 81.294132 
L 59.460798 80.723241 
L 60.031689 80.723241 
L 60.031689 81.294132 
L 59.460798 81.294132 
z
M 62.650238 81.294132 
L 62.149706 81.294132 
L 62.149706 78.102132 
Q 61.968909 78.274022 61.675003 78.446803 
Q 61.381097 78.619585 61.147753 78.705975 
L 61.147753 78.221475 
Q 61.568128 78.023757 61.882519 77.74321 
Q 62.196909 77.461772 62.327831 77.197257 
L 62.650238 77.197257 
L 62.650238 81.294132 
z
M 64.028368 78.193866 
Q 64.028368 77.756569 64.248353 77.451085 
Q 64.468337 77.14471 64.88515 77.14471 
Q 65.2699 77.14471 65.521056 77.419022 
Q 65.773103 77.692444 65.773103 78.224147 
Q 65.773103 78.7416 65.518384 79.021257 
Q 65.263665 79.300913 64.891384 79.300913 
Q 64.520884 79.300913 64.274181 79.02571 
Q 64.028368 78.750507 64.028368 78.193866 
z
M 64.8994 77.489382 
Q 64.713259 77.489382 64.589462 77.651475 
Q 64.465665 77.812678 64.465665 78.243741 
Q 64.465665 78.636507 64.590353 78.796819 
Q 64.715931 78.956241 64.8994 78.956241 
Q 65.089103 78.956241 65.2129 78.795038 
Q 65.336697 78.632944 65.336697 78.204553 
Q 65.336697 77.809116 65.211118 77.649694 
Q 65.08554 77.489382 64.8994 77.489382 
z
M 64.902072 81.444647 
L 67.133978 77.14471 
L 67.540993 77.14471 
L 65.317103 81.444647 
L 64.902072 81.444647 
z
M 66.6664 80.33671 
Q 66.6664 79.896741 66.886384 79.592147 
Q 67.106368 79.287553 67.526743 79.287553 
Q 67.910603 79.287553 68.16265 79.561866 
Q 68.414697 79.835288 68.414697 80.366991 
Q 68.414697 80.885335 68.159978 81.164991 
Q 67.905259 81.444647 67.529415 81.444647 
Q 67.159806 81.444647 66.913103 81.167663 
Q 66.6664 80.890678 66.6664 80.33671 
z
M 67.540993 79.632225 
Q 67.35129 79.632225 67.227493 79.794319 
Q 67.103697 79.955522 67.103697 80.386585 
Q 67.103697 80.776678 67.228384 80.937882 
Q 67.353962 81.099085 67.538322 81.099085 
Q 67.729806 81.099085 67.853603 80.937882 
Q 67.9774 80.776678 67.9774 80.347397 
Q 67.9774 79.95285 67.851822 79.792538 
Q 67.727134 79.632225 67.540993 79.632225 
z
M 69.469753 82.493803 
L 69.110831 82.493803 
Q 69.942675 81.157866 69.942675 79.819257 
Q 69.942675 79.295569 69.823331 78.780788 
Q 69.728034 78.363085 69.558816 77.979225 
Q 69.450159 77.72896 69.110831 77.14471 
L 69.469753 77.14471 
Q 69.99255 77.84296 70.242816 78.547444 
Q 70.457456 79.15396 70.457456 79.816585 
Q 70.457456 80.567382 70.168894 81.269194 
Q 69.881222 81.970116 69.469753 82.493803 
z
" style="fill: #272727"/>
   </g>
   <g id="text_4">
    <text style="fill: #0f4d92; font: 700 6px 'Arial', 'Helvetica', 'DejaVu Sans', 'Liberation Sans', sans-serif; text-anchor: middle" x="44.88189" y="123.388364" transform="rotate(-0 44.88189 123.388364)">EWAS</text>
   </g>
   <g id="text_5">
    <text style="fill: #b64342; font: 700 6px 'Arial', 'Helvetica', 'DejaVu Sans', 'Liberation Sans', sans-serif; text-anchor: middle" x="96.850394" y="123.388364" transform="rotate(-0 96.850394 123.388364)">haEWAS</text>
   </g>
  </g>
  <g id="text_6">
   <text style="fill: #272727; font: 700 7px 'Arial', 'Helvetica', 'DejaVu Sans', 'Liberation Sans', sans-serif; text-anchor: start" x="2.551181" y="9.455193" transform="rotate(-0 2.551181 9.455193)">a</text>
  </g>
 </g>
 <defs>
  <clipPath id="pda2333b6fd">
   <rect x="8.503937" y="27.139108" width="124.724409" height="101.627297"/>
  </clipPath>
 </defs>
</svg>
